<?xml version="1.0" encoding="utf-8"?>
<!-- Generator: Adobe Illustrator 27.9.6, SVG Export Plug-In . SVG Version: 9.03 Build 54986)  -->
<svg version="1.1" id="Warstwa_1" xmlns="http://www.w3.org/2000/svg" xmlns:xlink="http://www.w3.org/1999/xlink" x="0px" y="0px"
	 viewBox="0 0 215 85" style="enable-background:new 0 0 215 85;" xml:space="preserve">
<style type="text/css">
	.st0{clip-path:url(#SVGID_00000101080117516118145740000000077792243652360073_);fill:#FFFFFF;}
	.st1{clip-path:url(#SVGID_00000099632169468572008910000016517685979562219439_);fill:#FFFFFF;}
	.st2{clip-path:url(#SVGID_00000093867820906221267560000003167717467315078296_);fill:#FFFFFF;}
	.st3{clip-path:url(#SVGID_00000137848042654471027290000018364858326879538821_);fill:#FFFFFF;}
	.st4{clip-path:url(#SVGID_00000145029650656311621160000005575886157944947638_);fill:#FFFFFF;}
	.st5{clip-path:url(#SVGID_00000001647630348300083520000016091777320787990456_);fill:#FFFFFF;}
	.st6{clip-path:url(#SVGID_00000111881113935749426760000002721521425842605502_);fill:#FFFFFF;}
	.st7{clip-path:url(#SVGID_00000012471549395619341220000017298984239119900601_);fill:#FFFFFF;}
	.st8{clip-path:url(#SVGID_00000121990697971358051380000007585291583569290660_);fill:#FFFFFF;}
	.st9{clip-path:url(#SVGID_00000093891774391374571840000013832181350477437606_);fill:#FFFFFF;}
	.st10{clip-path:url(#SVGID_00000001638313518708880320000000559322720450194051_);fill:#FFFFFF;}
	.st11{clip-path:url(#SVGID_00000167360185346071170570000007142802031247369633_);fill:#FFFFFF;}
	.st12{clip-path:url(#SVGID_00000178894071200553259220000011653764068107708298_);fill:#FFFFFF;}
	.st13{clip-path:url(#SVGID_00000020391847670252574580000013994372295750368168_);fill:#FFFFFF;}
	.st14{clip-path:url(#SVGID_00000165209747902989706760000011661968808754759314_);fill:#FFFFFF;}
	.st15{clip-path:url(#SVGID_00000153703965641923331030000005217703146647919283_);fill:#FFFFFF;}
	.st16{clip-path:url(#SVGID_00000043418314075054524480000017452414298868972444_);fill:#FFFFFF;}
	.st17{clip-path:url(#SVGID_00000143595904025887867060000017464280938892496515_);fill:#FFFFFF;}
	.st18{clip-path:url(#SVGID_00000021102656923164438090000001247646330051411602_);fill:#FFFFFF;}
	.st19{clip-path:url(#SVGID_00000028289055205273051540000002675233290511818884_);fill:#FFFFFF;}
	.st20{clip-path:url(#SVGID_00000128457989736828907200000010871625142644088974_);fill:#FFFFFF;}
	.st21{clip-path:url(#SVGID_00000101817617304552770020000002438521572132765363_);}
	.st22{clip-path:url(#SVGID_00000120542116861016476020000017428443032044165254_);}
	.st23{clip-path:url(#SVGID_00000137097047596828322860000017020528807942113977_);}
	.st24{clip-path:url(#SVGID_00000081607449652684851540000003266413390539740050_);fill:#F39200;}
	
		.st25{clip-path:url(#SVGID_00000035510104329508292140000018018463730012019871_);fill:url(#SVGID_00000054249163343730673100000015153478711158642616_);}
	
		.st26{clip-path:url(#SVGID_00000064333865197222998340000012752195972127673506_);fill:url(#SVGID_00000091713647281452958490000017787211008815218305_);}
	
		.st27{clip-path:url(#SVGID_00000005956265130588358780000009209391575779065988_);fill:url(#SVGID_00000109004834285595166710000007920313259934299274_);}
	
		.st28{clip-path:url(#SVGID_00000158733024126390522290000006592674817725724312_);fill:url(#SVGID_00000008138017422360477480000001817790600004904100_);}
	
		.st29{clip-path:url(#SVGID_00000170966260086877379140000000029283473943003577_);fill:url(#SVGID_00000090270381131228971050000007419302286287282601_);}
</style>
<g>
	<defs>
		<rect id="SVGID_1_" x="1.8" y="10.1" width="211.4" height="67.4"/>
	</defs>
	<clipPath id="SVGID_00000093858752921814016750000017665793762062407333_">
		<use xlink:href="#SVGID_1_"  style="overflow:visible;"/>
	</clipPath>
	<path style="clip-path:url(#SVGID_00000093858752921814016750000017665793762062407333_);fill:#FFFFFF;" d="M67.5,36.1V20.2h4.3
		c2.1,0,3.6,0.6,4.6,1.7c0.8,0.9,1.2,2,1.2,3.4s-0.5,2.6-1.4,3.5s-2.2,1.3-3.9,1.3h-1.9v6H67.5z M70.5,27.2H72
		c0.7,0,1.4-0.2,1.9-0.5c0.6-0.4,0.9-0.9,0.9-1.6c0-0.8-0.3-1.3-0.9-1.7C73.5,23.1,72.8,23,72,23h-1.5V27.2z"/>
</g>
<g>
	<defs>
		<rect id="SVGID_00000083080787572155277640000010275156805502093200_" x="1.8" y="10.1" width="211.4" height="67.4"/>
	</defs>
	<clipPath id="SVGID_00000183208280432804727570000008804327397033275309_">
		<use xlink:href="#SVGID_00000083080787572155277640000010275156805502093200_"  style="overflow:visible;"/>
	</clipPath>
	<polygon style="clip-path:url(#SVGID_00000183208280432804727570000008804327397033275309_);fill:#FFFFFF;" points="80.4,20.2 
		83.3,20.2 83.3,27.1 88.2,20.2 91.8,20.2 85.8,28 91.8,36.1 88.2,36.1 83.3,29.1 83.3,36.1 80.4,36.1 	"/>
</g>
<g>
	<defs>
		<rect id="SVGID_00000043457915828944758970000012129233273565453750_" x="1.8" y="10.1" width="211.4" height="67.4"/>
	</defs>
	<clipPath id="SVGID_00000103265711761714562150000000627419238794613915_">
		<use xlink:href="#SVGID_00000043457915828944758970000012129233273565453750_"  style="overflow:visible;"/>
	</clipPath>
	<polygon style="clip-path:url(#SVGID_00000103265711761714562150000000627419238794613915_);fill:#FFFFFF;" points="93.5,20.2 
		96.4,20.2 99.2,31.3 101.9,20.2 104.1,20.2 106.7,31.4 109.5,20.2 112.5,20.2 108,36.1 105.6,36.1 103,25.6 100.4,36.1 98.1,36.1 	
		"/>
</g>
<g>
	<defs>
		<rect id="SVGID_00000010291199964039578840000009051932338648430736_" x="1.8" y="10.1" width="211.4" height="67.4"/>
	</defs>
	<clipPath id="SVGID_00000076590947398871085400000014914760817572136118_">
		<use xlink:href="#SVGID_00000010291199964039578840000009051932338648430736_"  style="overflow:visible;"/>
	</clipPath>
	<polygon style="clip-path:url(#SVGID_00000076590947398871085400000014914760817572136118_);fill:#FFFFFF;" points="67.5,40.6 
		76.1,40.6 76.1,43.4 70.5,43.4 70.5,47.1 75.8,47.1 75.8,50 70.5,50 70.5,53.6 76,53.6 76,56.5 67.5,56.5 	"/>
</g>
<g>
	<defs>
		<rect id="SVGID_00000045584159649667930880000011512366108311757976_" x="1.8" y="10.1" width="211.4" height="67.4"/>
	</defs>
	<clipPath id="SVGID_00000078738358791028687400000015738704693199634084_">
		<use xlink:href="#SVGID_00000045584159649667930880000011512366108311757976_"  style="overflow:visible;"/>
	</clipPath>
	<polygon style="clip-path:url(#SVGID_00000078738358791028687400000015738704693199634084_);fill:#FFFFFF;" points="79.5,40.6 
		82.8,40.6 89.4,52.3 89.4,40.6 92.3,40.6 92.3,56.5 89.1,56.5 82.4,44.9 82.4,56.5 79.5,56.5 	"/>
</g>
<g>
	<defs>
		<rect id="SVGID_00000133530496564838492000000001501416707509802405_" x="1.8" y="10.1" width="211.4" height="67.4"/>
	</defs>
	<clipPath id="SVGID_00000018205854785572026940000008596447782316400570_">
		<use xlink:href="#SVGID_00000133530496564838492000000001501416707509802405_"  style="overflow:visible;"/>
	</clipPath>
	<path style="clip-path:url(#SVGID_00000018205854785572026940000008596447782316400570_);fill:#FFFFFF;" d="M103.3,40.3
		c0.8,0,1.6,0.1,2.3,0.2c1.1,0.3,2.2,0.7,3.1,1.4c1.1,0.8,2.1,2,2.7,3.4h-3.5c-0.4-0.7-1-1.2-1.7-1.6c-0.7-0.4-1.5-0.6-2.3-0.6h-0.5
		c-1.3,0-2.5,0.5-3.5,1.5s-1.6,2.3-1.6,3.7c0,1.7,0.6,3,1.7,4.1c1.1,1,2.3,1.5,3.8,1.5c1,0,1.9-0.3,2.8-0.8s1.5-1.2,2-2.1H102v-2.8
		h10.3c0,2.3-0.8,4.3-2.4,5.9c-1.6,1.7-3.6,2.5-6,2.5s-4.4-0.8-6.1-2.4c-1.7-1.6-2.5-3.5-2.5-5.8v-0.3c0-2.2,0.8-4,2.5-5.7
		C99.4,41.1,101.2,40.3,103.3,40.3"/>
</g>
<g>
	<defs>
		<rect id="SVGID_00000115477190972359041850000011348718911559205527_" x="1.8" y="10.1" width="211.4" height="67.4"/>
	</defs>
	<clipPath id="SVGID_00000102521907282396602320000011229581912873675666_">
		<use xlink:href="#SVGID_00000115477190972359041850000011348718911559205527_"  style="overflow:visible;"/>
	</clipPath>
	
		<rect x="115" y="40.6" style="clip-path:url(#SVGID_00000102521907282396602320000011229581912873675666_);fill:#FFFFFF;" width="2.9" height="15.9"/>
</g>
<g>
	<defs>
		<rect id="SVGID_00000100376484857666418950000016985976792793883278_" x="1.8" y="10.1" width="211.4" height="67.4"/>
	</defs>
	<clipPath id="SVGID_00000052791026674802119200000000702947314481478052_">
		<use xlink:href="#SVGID_00000100376484857666418950000016985976792793883278_"  style="overflow:visible;"/>
	</clipPath>
	<polygon style="clip-path:url(#SVGID_00000052791026674802119200000000702947314481478052_);fill:#FFFFFF;" points="121.5,40.6 
		124.8,40.6 131.4,52.3 131.4,40.6 134.3,40.6 134.3,56.5 131.1,56.5 124.4,44.9 124.4,56.5 121.5,56.5 	"/>
</g>
<g>
	<defs>
		<rect id="SVGID_00000111158124189929712660000011885919095518209159_" x="1.8" y="10.1" width="211.4" height="67.4"/>
	</defs>
	<clipPath id="SVGID_00000090253917652903768990000013542416194337018543_">
		<use xlink:href="#SVGID_00000111158124189929712660000011885919095518209159_"  style="overflow:visible;"/>
	</clipPath>
	<polygon style="clip-path:url(#SVGID_00000090253917652903768990000013542416194337018543_);fill:#FFFFFF;" points="137.9,40.6 
		146.4,40.6 146.4,43.4 140.8,43.4 140.8,47.1 146.2,47.1 146.2,50 140.8,50 140.8,53.6 146.4,53.6 146.4,56.5 137.9,56.5 	"/>
</g>
<g>
	<defs>
		<rect id="SVGID_00000036226596902952155750000005417283918206093958_" x="1.8" y="10.1" width="211.4" height="67.4"/>
	</defs>
	<clipPath id="SVGID_00000103234521470194887710000009578469776550160062_">
		<use xlink:href="#SVGID_00000036226596902952155750000005417283918206093958_"  style="overflow:visible;"/>
	</clipPath>
	<polygon style="clip-path:url(#SVGID_00000103234521470194887710000009578469776550160062_);fill:#FFFFFF;" points="149.5,40.6 
		158.1,40.6 158.1,43.4 152.5,43.4 152.5,47.1 157.8,47.1 157.8,50 152.5,50 152.5,53.6 158,53.6 158,56.5 149.5,56.5 	"/>
</g>
<g>
	<defs>
		<rect id="SVGID_00000003079233965113597010000010298059043239196807_" x="1.8" y="10.1" width="211.4" height="67.4"/>
	</defs>
	<clipPath id="SVGID_00000120536980962602659060000007010584023370673543_">
		<use xlink:href="#SVGID_00000003079233965113597010000010298059043239196807_"  style="overflow:visible;"/>
	</clipPath>
	<path style="clip-path:url(#SVGID_00000120536980962602659060000007010584023370673543_);fill:#FFFFFF;" d="M165.5,40.6h0.5
		c1.7,0,3.1,0.4,4.1,1.2c1.1,0.9,1.7,2.2,1.7,3.9c0,1-0.3,2-0.9,2.8c-0.7,1.1-1.8,1.8-3.3,2.1l4.3,5.9h-3.7l-4.2-6.2v6.2h-2.9V40.6
		H165.5z M164.2,43.4v4.7h1.9c0.9,0,1.5-0.2,2-0.6c0.5-0.4,0.8-1,0.8-1.9c0-0.8-0.3-1.4-1-1.7c-0.5-0.3-1.2-0.4-2.1-0.4L164.2,43.4
		L164.2,43.4z"/>
</g>
<g>
	<defs>
		<rect id="SVGID_00000147218746886273593710000008120266131804403872_" x="1.8" y="10.1" width="211.4" height="67.4"/>
	</defs>
	<clipPath id="SVGID_00000078754161051632801620000009434502802337110920_">
		<use xlink:href="#SVGID_00000147218746886273593710000008120266131804403872_"  style="overflow:visible;"/>
	</clipPath>
	
		<rect x="174.5" y="40.6" style="clip-path:url(#SVGID_00000078754161051632801620000009434502802337110920_);fill:#FFFFFF;" width="2.9" height="15.9"/>
</g>
<g>
	<defs>
		<rect id="SVGID_00000109735922692735827680000012910752292680523427_" x="1.8" y="10.1" width="211.4" height="67.4"/>
	</defs>
	<clipPath id="SVGID_00000063623210674144038380000006393812738183270535_">
		<use xlink:href="#SVGID_00000109735922692735827680000012910752292680523427_"  style="overflow:visible;"/>
	</clipPath>
	<polygon style="clip-path:url(#SVGID_00000063623210674144038380000006393812738183270535_);fill:#FFFFFF;" points="180.7,40.6 
		184.1,40.6 190.6,52.3 190.6,40.6 193.6,40.6 193.6,56.5 190.3,56.5 183.6,44.9 183.6,56.5 180.7,56.5 	"/>
</g>
<g>
	<defs>
		<rect id="SVGID_00000120517421637470721170000009640862521249342390_" x="1.8" y="10.1" width="211.4" height="67.4"/>
	</defs>
	<clipPath id="SVGID_00000044890543946999841130000006806799919219729299_">
		<use xlink:href="#SVGID_00000120517421637470721170000009640862521249342390_"  style="overflow:visible;"/>
	</clipPath>
	<path style="clip-path:url(#SVGID_00000044890543946999841130000006806799919219729299_);fill:#FFFFFF;" d="M204.2,40.3
		c0.8,0,1.6,0.1,2.3,0.2c1.1,0.3,2.2,0.7,3.1,1.4c1.1,0.8,2.1,2,2.7,3.4h-3.5c-0.4-0.7-1-1.2-1.7-1.6c-0.7-0.4-1.5-0.6-2.3-0.6h-0.5
		c-1.3,0-2.5,0.5-3.5,1.5s-1.6,2.3-1.6,3.7c0,1.7,0.6,3,1.7,4.1c1.1,1,2.3,1.5,3.8,1.5c1,0,1.9-0.3,2.8-0.8c0.9-0.5,1.5-1.2,2-2.1
		h-6.6v-2.8h10.3c0,2.3-0.8,4.3-2.4,5.9c-1.6,1.7-3.6,2.5-6,2.5s-4.4-0.8-6.1-2.4c-1.7-1.6-2.5-3.5-2.5-5.8v-0.3
		c0-2.2,0.8-4,2.5-5.7C200.3,41.1,202.2,40.3,204.2,40.3"/>
</g>
<g>
	<defs>
		<rect id="SVGID_00000034056136266867916620000004972383965218815637_" x="1.8" y="10.1" width="211.4" height="67.4"/>
	</defs>
	<clipPath id="SVGID_00000008864561930500636420000007621043753710601916_">
		<use xlink:href="#SVGID_00000034056136266867916620000004972383965218815637_"  style="overflow:visible;"/>
	</clipPath>
	<path style="clip-path:url(#SVGID_00000008864561930500636420000007621043753710601916_);fill:#FFFFFF;" d="M166.5,73.1
		c0.5,0.3,1.2,0.6,2,0.6c0.9,0,1.5-0.5,1.5-1.2s-0.4-1.1-1.4-1.5c-1.3-0.5-2.2-1.3-2.2-2.6c0-1.5,1.1-2.6,2.9-2.6
		c0.9,0,1.5,0.2,1.9,0.5l-0.4,1.3c-0.3-0.2-0.9-0.4-1.6-0.4c-0.9,0-1.3,0.6-1.3,1.1c0,0.7,0.5,1,1.5,1.5c1.4,0.6,2.1,1.4,2.1,2.7
		c0,1.4-1,2.7-3.1,2.7c-0.9,0-1.7-0.3-2.2-0.6L166.5,73.1z"/>
</g>
<g>
	<defs>
		<rect id="SVGID_00000176760349241573857400000013137958328075973049_" x="1.8" y="10.1" width="211.4" height="67.4"/>
	</defs>
	<clipPath id="SVGID_00000041258761736560526130000000286811337274006705_">
		<use xlink:href="#SVGID_00000176760349241573857400000013137958328075973049_"  style="overflow:visible;"/>
	</clipPath>
	<path style="clip-path:url(#SVGID_00000041258761736560526130000000286811337274006705_);fill:#FFFFFF;" d="M173.1,70.6
		c0-0.9,0-1.5,0-2.2h1.3l0.1,1l0,0c0.4-0.7,1.1-1.1,2-1.1c1.3,0,2.5,1.3,2.5,3.3c0,2.3-1.3,3.5-2.7,3.5c-0.7,0-1.3-0.3-1.6-0.9l0,0
		v3.4h-1.5v-7H173.1z M174.5,72.2c0,0.2,0,0.3,0,0.5c0.1,0.7,0.7,1.1,1.3,1.1c0.9,0,1.5-0.9,1.5-2.1c0-1.1-0.5-2.1-1.5-2.1
		c-0.6,0-1.2,0.5-1.3,1.2c0,0.1-0.1,0.3-0.1,0.4v1H174.5z"/>
</g>
<g>
	<defs>
		<rect id="SVGID_00000106852355016368885480000003180689549116935352_" x="1.8" y="10.1" width="211.4" height="67.4"/>
	</defs>
	<clipPath id="SVGID_00000120516399362583907180000017782862570449560218_">
		<use xlink:href="#SVGID_00000106852355016368885480000003180689549116935352_"  style="overflow:visible;"/>
	</clipPath>
	<path style="clip-path:url(#SVGID_00000120516399362583907180000017782862570449560218_);fill:#FFFFFF;" d="M182.6,74l2.2-3.1
		c0.3-0.4,0.6-0.7,0.9-1.1l0,0h-2.8v-1.3h4.6v1l-2.1,3.1c-0.3,0.4-0.6,0.8-0.9,1.1l0,0h3.1V75h-4.9v-1H182.6z"/>
</g>
<g>
	<defs>
		<rect id="SVGID_00000164473512056309401180000005563463801631014329_" x="1.8" y="10.1" width="211.4" height="67.4"/>
	</defs>
	<clipPath id="SVGID_00000173875754219285185850000002879686417353261725_">
		<use xlink:href="#SVGID_00000164473512056309401180000005563463801631014329_"  style="overflow:visible;"/>
	</clipPath>
	<path style="clip-path:url(#SVGID_00000173875754219285185850000002879686417353261725_);fill:#FFFFFF;" d="M197.2,71.6
		c0,2.4-1.5,3.5-3,3.5c-1.7,0-2.9-1.3-2.9-3.3c0-2.1,1.3-3.4,3-3.4C196,68.3,197.2,69.6,197.2,71.6 M192.8,71.7
		c0,1.3,0.6,2.2,1.5,2.2c0.8,0,1.4-0.9,1.4-2.2c0-1-0.4-2.2-1.4-2.2C193.2,69.5,192.8,70.6,192.8,71.7"/>
</g>
<g>
	<defs>
		<rect id="SVGID_00000018219311702836175280000012847489357913517734_" x="1.8" y="10.1" width="211.4" height="67.4"/>
	</defs>
	<clipPath id="SVGID_00000061445410513603969770000017348885797199462555_">
		<use xlink:href="#SVGID_00000018219311702836175280000012847489357913517734_"  style="overflow:visible;"/>
	</clipPath>
	<path style="clip-path:url(#SVGID_00000061445410513603969770000017348885797199462555_);fill:#FFFFFF;" d="M198.2,74
		c0-0.6,0.4-1.1,0.9-1.1s0.9,0.4,0.9,1.1c0,0.6-0.4,1.1-0.9,1.1C198.6,75,198.2,74.6,198.2,74"/>
</g>
<g>
	<defs>
		<rect id="SVGID_00000038405845340033873780000001853229429698568322_" x="1.8" y="10.1" width="211.4" height="67.4"/>
	</defs>
	<clipPath id="SVGID_00000111179528715324145130000012789817039375945347_">
		<use xlink:href="#SVGID_00000038405845340033873780000001853229429698568322_"  style="overflow:visible;"/>
	</clipPath>
	<path style="clip-path:url(#SVGID_00000111179528715324145130000012789817039375945347_);fill:#FFFFFF;" d="M209.8,71.6
		c0,2.4-1.5,3.5-3,3.5c-1.7,0-2.9-1.3-2.9-3.3c0-2.1,1.3-3.4,3-3.4C208.7,68.3,209.8,69.6,209.8,71.6 M205.4,71.7
		c0,1.3,0.6,2.2,1.5,2.2c0.8,0,1.4-0.9,1.4-2.2c0-1-0.4-2.2-1.4-2.2S205.4,70.6,205.4,71.7"/>
</g>
<g>
	<defs>
		<rect id="SVGID_00000155845855509460641410000005888784006565643392_" x="1.8" y="10.1" width="211.4" height="67.4"/>
	</defs>
	<clipPath id="SVGID_00000129888132211335486360000003713912333543041668_">
		<use xlink:href="#SVGID_00000155845855509460641410000005888784006565643392_"  style="overflow:visible;"/>
	</clipPath>
	<path style="clip-path:url(#SVGID_00000129888132211335486360000003713912333543041668_);fill:#FFFFFF;" d="M210.8,74
		c0-0.6,0.4-1.1,0.9-1.1s0.9,0.4,0.9,1.1c0,0.6-0.4,1.1-0.9,1.1C211.2,75,210.8,74.6,210.8,74"/>
</g>
<g>
	<defs>
		<rect id="SVGID_00000164483514019056888050000012088087212647879336_" x="1.8" y="10.1" width="211.4" height="67.4"/>
	</defs>
	<clipPath id="SVGID_00000132064882781601810750000012503032447855221682_">
		<use xlink:href="#SVGID_00000164483514019056888050000012088087212647879336_"  style="overflow:visible;"/>
	</clipPath>
	<polygon style="clip-path:url(#SVGID_00000132064882781601810750000012503032447855221682_);" points="23.9,10.1 3.6,10.1 
		3.6,47.5 5.2,46.2 5.2,11.7 23.9,11.7 	"/>
</g>
<g>
	<defs>
		<rect id="SVGID_00000063610685386606922750000017416630629376248479_" x="1.8" y="10.1" width="211.4" height="67.4"/>
	</defs>
	<clipPath id="SVGID_00000163072884302779509500000017178802689874928514_">
		<use xlink:href="#SVGID_00000063610685386606922750000017416630629376248479_"  style="overflow:visible;"/>
	</clipPath>
	<polygon style="clip-path:url(#SVGID_00000163072884302779509500000017178802689874928514_);" points="50.4,32.2 48.8,33.1 
		48.8,55.3 42.5,55.3 41.9,56.9 50.4,56.9 	"/>
</g>
<g>
	<defs>
		<rect id="SVGID_00000026842595126703381540000012271790000271410615_" x="1.8" y="10.1" width="211.4" height="67.4"/>
	</defs>
	<clipPath id="SVGID_00000036242964375952295560000017494729525139125175_">
		<use xlink:href="#SVGID_00000026842595126703381540000012271790000271410615_"  style="overflow:visible;"/>
	</clipPath>
	<polygon style="clip-path:url(#SVGID_00000036242964375952295560000017494729525139125175_);" points="9.7,55.3 7,56.9 28.7,56.9 
		28.7,55.3 	"/>
</g>
<g>
	<defs>
		<rect id="SVGID_00000176036371472109079720000004452633252912343992_" x="1.8" y="10.1" width="211.4" height="67.4"/>
	</defs>
	<clipPath id="SVGID_00000061444366893810380410000011840894500465735307_">
		<use xlink:href="#SVGID_00000176036371472109079720000004452633252912343992_"  style="overflow:visible;"/>
	</clipPath>
	<path style="clip-path:url(#SVGID_00000061444366893810380410000011840894500465735307_);fill:#F39200;" d="M38.7,24.7
		c-0.6-6.2-4-11.7-7.5-13.7c-0.1,0-0.2-0.1-0.2-0.1c0.4,1.7,1.3,3.6,1.8,5.9C35.7,18.8,37.8,21.6,38.7,24.7"/>
</g>
<g>
	<g>
		<defs>
			<path id="SVGID_00000139269214651257897390000017253008339368169088_" d="M17,43.2c-6.8,5.4-15.2,9.6-15.1,9.6
				c-0.1,0,10.7-2.7,19.3-7.2c4.4-2.1,9.8-6.2,10.2-6.7c0.7-0.8,1-1.1,1.4-2c0.9-2.4,0-5.7-2.1-8C29.5,31.6,24,37.9,17,43.2z"/>
		</defs>
		<clipPath id="SVGID_00000070800337898039960170000013852470776906114751_">
			<use xlink:href="#SVGID_00000139269214651257897390000017253008339368169088_"  style="overflow:visible;"/>
		</clipPath>
		
			<radialGradient id="SVGID_00000025408535956061751720000000609111042153077922_" cx="-540.0063" cy="1105.9617" r="0.7091" gradientTransform="matrix(14.8362 -23.0589 23.0589 14.8362 -17469.7324 -28827.3516)" gradientUnits="userSpaceOnUse">
			<stop  offset="0" style="stop-color:#FCEA10"/>
			<stop  offset="1" style="stop-color:#F39200"/>
		</radialGradient>
		
			<polygon style="clip-path:url(#SVGID_00000070800337898039960170000013852470776906114751_);fill:url(#SVGID_00000025408535956061751720000000609111042153077922_);" points="
			-9.1,45.8 11.2,14.3 44.7,35.9 24.4,67.4 		"/>
	</g>
</g>
<g>
	<g>
		<defs>
			<path id="SVGID_00000118376548591180081220000005140887949682488239_" d="M22.7,24.8c0.4,3,2.2,5.4,4.9,7c1.2-1.4,2-2.7,2.4-3.5
				v-0.1c-0.6-0.6-1.3-1.1-2-1.5C27,26.1,25.1,25.4,22.7,24.8z"/>
		</defs>
		<clipPath id="SVGID_00000124123332095085845520000002315236423242122901_">
			<use xlink:href="#SVGID_00000118376548591180081220000005140887949682488239_"  style="overflow:visible;"/>
		</clipPath>
		
			<radialGradient id="SVGID_00000154399180114609631140000010880968177877349020_" cx="-524.371" cy="1099.9606" r="0.7091" gradientTransform="matrix(29.2777 -23.3875 23.3875 29.2777 -10345.5254 -44435.1055)" gradientUnits="userSpaceOnUse">
			<stop  offset="0" style="stop-color:#00182D"/>
			<stop  offset="0.5174" style="stop-color:#2581C4"/>
			<stop  offset="0.5678" style="stop-color:#2580C1"/>
			<stop  offset="0.6311" style="stop-color:#257AB9"/>
			<stop  offset="0.7012" style="stop-color:#2371AA"/>
			<stop  offset="0.7762" style="stop-color:#206395"/>
			<stop  offset="0.8552" style="stop-color:#195079"/>
			<stop  offset="0.9362" style="stop-color:#0B3553"/>
			<stop  offset="1" style="stop-color:#00182D"/>
		</radialGradient>
		
			<polygon style="clip-path:url(#SVGID_00000124123332095085845520000002315236423242122901_);fill:url(#SVGID_00000154399180114609631140000010880968177877349020_);" points="
			19.3,27.5 27.2,21.3 33.4,29.1 25.6,35.4 		"/>
	</g>
</g>
<g>
	<g>
		<defs>
			<path id="SVGID_00000116204079206208194100000008491056116469821064_" d="M47.5,18.6c-2.2,1.8-5.4,3.7-8.1,5
				c0.3,2.2,0.4,4.4,0,6.6c-0.2,0.9-0.5,1.8-1.1,2.7c0.5-0.1,0.9-0.1,1.4-0.2c4.7-0.9,10.2-6.4,12.2-11.2c2.3-4.9,1.1-9,1.2-8.9
				C53,12.6,51.5,15.5,47.5,18.6z"/>
		</defs>
		<clipPath id="SVGID_00000094579486284992113450000013951843291686675081_">
			<use xlink:href="#SVGID_00000116204079206208194100000008491056116469821064_"  style="overflow:visible;"/>
		</clipPath>
		
			<radialGradient id="SVGID_00000054243995848865201500000009236017265380255658_" cx="-524.4322" cy="1100.1519" r="0.7091" gradientTransform="matrix(29.0953 -23.2418 23.2418 29.0953 -10282.3398 -44165.7148)" gradientUnits="userSpaceOnUse">
			<stop  offset="0" style="stop-color:#00182D"/>
			<stop  offset="0.5174" style="stop-color:#2581C4"/>
			<stop  offset="0.5678" style="stop-color:#2580C1"/>
			<stop  offset="0.6311" style="stop-color:#257AB9"/>
			<stop  offset="0.7012" style="stop-color:#2371AA"/>
			<stop  offset="0.7762" style="stop-color:#206395"/>
			<stop  offset="0.8552" style="stop-color:#195079"/>
			<stop  offset="0.9362" style="stop-color:#0B3553"/>
			<stop  offset="1" style="stop-color:#00182D"/>
		</radialGradient>
		
			<polygon style="clip-path:url(#SVGID_00000094579486284992113450000013951843291686675081_);fill:url(#SVGID_00000054243995848865201500000009236017265380255658_);" points="
			28.4,20.5 48,4.8 64.2,25 44.5,40.7 		"/>
	</g>
</g>
<g>
	<g>
		<defs>
			<path id="SVGID_00000176024209540839381250000014329875042148822974_" d="M31.4,67.8L31.4,67.8 M29.6,41.5
				c4.6,11.5,1.8,25.9,1.9,26.3c0.1-0.2,4.8-4.1,7.3-11.1c2.8-6.9,3.5-15.4,0.5-20.9C39,35.3,38.4,34.4,38,34
				C36.5,36.2,33.6,38.7,29.6,41.5z"/>
		</defs>
		<clipPath id="SVGID_00000124867523407310285030000016924175842307160448_">
			<use xlink:href="#SVGID_00000176024209540839381250000014329875042148822974_"  style="overflow:visible;"/>
		</clipPath>
		
			<radialGradient id="SVGID_00000063633972855452908090000004861086774834199970_" cx="-488.6473" cy="1129.151" r="0.71" gradientTransform="matrix(17.8125 0 0 17.8125 8739.3848 -20062.1016)" gradientUnits="userSpaceOnUse">
			<stop  offset="0" style="stop-color:#E30613"/>
			<stop  offset="0.1649" style="stop-color:#E30613"/>
			<stop  offset="0.2782" style="stop-color:#E00714"/>
			<stop  offset="0.4201" style="stop-color:#D50914"/>
			<stop  offset="0.5772" style="stop-color:#C40C14"/>
			<stop  offset="0.7453" style="stop-color:#AA0F13"/>
			<stop  offset="0.9203" style="stop-color:#8A0F0E"/>
			<stop  offset="1" style="stop-color:#7A0E0B"/>
		</radialGradient>
		
			<rect x="29.6" y="34" style="clip-path:url(#SVGID_00000124867523407310285030000016924175842307160448_);fill:url(#SVGID_00000063633972855452908090000004861086774834199970_);" width="12.6" height="33.8"/>
	</g>
</g>
<g>
	<g>
		<defs>
			<path id="SVGID_00000072958411959992945200000002486830413370192538_" d="M13.8,17.4c-5,2.1-6.7,6-6.8,5.9c0,0,0.7-0.2,1.9-0.4
				c1.4-0.3,3.6-0.6,6.3-0.4c4.8,0.1,11.6,1.9,13.8,3.3c4.1,2.4,6.3,7.1,5,10.9c0.1-0.1,0.2-0.2,0.3-0.2c6.7-4.9,4.6-14.8-3.9-19.5
				c-1.9-1.1-4.5-1.6-7.2-1.6C19.8,15.3,16.3,16.1,13.8,17.4z"/>
		</defs>
		<clipPath id="SVGID_00000083786162549091437940000001912770274868912025_">
			<use xlink:href="#SVGID_00000072958411959992945200000002486830413370192538_"  style="overflow:visible;"/>
		</clipPath>
		
			<radialGradient id="SVGID_00000072967914865118135440000001658568686501845182_" cx="-552.7695" cy="1126.1456" r="0.7091" gradientTransform="matrix(9.6018 -14.9235 14.9235 9.6018 -11473.6523 -19038.2715)" gradientUnits="userSpaceOnUse">
			<stop  offset="0" style="stop-color:#2581C4"/>
			<stop  offset="0.1046" style="stop-color:#2580C1"/>
			<stop  offset="0.2356" style="stop-color:#257AB9"/>
			<stop  offset="0.3808" style="stop-color:#2371AA"/>
			<stop  offset="0.5363" style="stop-color:#206395"/>
			<stop  offset="0.6999" style="stop-color:#195079"/>
			<stop  offset="0.8677" style="stop-color:#0B3553"/>
			<stop  offset="1" style="stop-color:#00182D"/>
		</radialGradient>
		
			<polygon style="clip-path:url(#SVGID_00000083786162549091437940000001912770274868912025_);fill:url(#SVGID_00000072967914865118135440000001658568686501845182_);" points="
			-2.7,30.4 17,-0.1 50.6,21.6 31,52.1 		"/>
	</g>
</g>
</svg>
