<?xml version="1.0" encoding="utf-8"?>
<!-- Generator: Adobe Illustrator 27.9.6, SVG Export Plug-In . SVG Version: 9.03 Build 54986)  -->
<svg version="1.1" id="Warstwa_1" xmlns="http://www.w3.org/2000/svg" xmlns:xlink="http://www.w3.org/1999/xlink" x="0px" y="0px"
	 viewBox="0 0 215 85" style="enable-background:new 0 0 215 85;" xml:space="preserve">
<style type="text/css">
	.st0{clip-path:url(#SVGID_00000176012171465925218700000013380537576379611026_);}
	.st1{clip-path:url(#SVGID_00000176012171465925218700000013380537576379611026_);fill:#1D71B8;}
	.st2{clip-path:url(#SVGID_00000176012171465925218700000013380537576379611026_);fill:#F39200;}
	
		.st3{clip-path:url(#SVGID_00000157298928395151929630000017621275600608741771_);fill:url(#SVGID_00000042011690426681501580000004790093693216603022_);}
	
		.st4{clip-path:url(#SVGID_00000138536098689581163210000017270431469025565834_);fill:url(#SVGID_00000018955828331681265610000003336590843562036635_);}
	
		.st5{clip-path:url(#SVGID_00000033328712317069861060000005707892682344670382_);fill:url(#SVGID_00000157298954622201839130000016188751267742810260_);}
	
		.st6{clip-path:url(#SVGID_00000150088483560189767510000018091981721372529046_);fill:url(#SVGID_00000130645584346854474800000008422017038559938688_);}
	
		.st7{clip-path:url(#SVGID_00000029740011874657331560000000012441604379779488_);fill:url(#SVGID_00000008832772792930779760000014845117410702414234_);}
</style>
<g>
	<defs>
		<rect id="SVGID_1_" x="1.8" y="10.1" width="211.4" height="67.4"/>
	</defs>
	<clipPath id="SVGID_00000013902918834174904260000008429706870178341506_">
		<use xlink:href="#SVGID_1_"  style="overflow:visible;"/>
	</clipPath>
	<path style="clip-path:url(#SVGID_00000013902918834174904260000008429706870178341506_);" d="M67.5,36.1V20.2h4.3
		c2.1,0,3.6,0.6,4.6,1.7c0.8,0.9,1.2,2,1.2,3.4c0,1.4-0.5,2.6-1.4,3.5c-0.9,0.9-2.2,1.3-3.9,1.3h-1.9v6H67.5z M70.5,27.2H72
		c0.7,0,1.4-0.2,1.9-0.5c0.6-0.4,0.9-0.9,0.9-1.6c0-0.8-0.3-1.3-0.9-1.7c-0.4-0.3-1.1-0.4-1.9-0.4h-1.5V27.2z"/>
	<polygon style="clip-path:url(#SVGID_00000013902918834174904260000008429706870178341506_);" points="80.4,20.2 83.3,20.2 
		83.3,27.1 88.2,20.2 91.8,20.2 85.8,28 91.8,36.1 88.2,36.1 83.3,29.1 83.3,36.1 80.4,36.1 	"/>
	<polygon style="clip-path:url(#SVGID_00000013902918834174904260000008429706870178341506_);" points="93.5,20.2 96.4,20.2 
		99.2,31.3 101.9,20.2 104.1,20.2 106.7,31.4 109.5,20.2 112.5,20.2 108,36.1 105.6,36.1 103,25.6 100.4,36.1 98.1,36.1 	"/>
	<polygon style="clip-path:url(#SVGID_00000013902918834174904260000008429706870178341506_);fill:#1D71B8;" points="67.5,40.6 
		76.1,40.6 76.1,43.4 70.5,43.4 70.5,47.1 75.8,47.1 75.8,50 70.5,50 70.5,53.6 76,53.6 76,56.5 67.5,56.5 	"/>
	<polygon style="clip-path:url(#SVGID_00000013902918834174904260000008429706870178341506_);fill:#1D71B8;" points="79.5,40.6 
		82.8,40.6 89.4,52.3 89.4,40.6 92.3,40.6 92.3,56.5 89.1,56.5 82.4,44.9 82.4,56.5 79.5,56.5 	"/>
	<path style="clip-path:url(#SVGID_00000013902918834174904260000008429706870178341506_);fill:#1D71B8;" d="M103.3,40.3
		c0.8,0,1.6,0.1,2.3,0.2c1.1,0.3,2.2,0.7,3.1,1.4c1.1,0.8,2.1,2,2.7,3.4h-3.5c-0.4-0.7-1-1.2-1.7-1.6c-0.7-0.4-1.5-0.6-2.3-0.6h-0.5
		c-1.3,0-2.5,0.5-3.5,1.5c-1,1-1.6,2.3-1.6,3.7c0,1.7,0.6,3,1.7,4.1c1.1,1,2.3,1.5,3.8,1.5c1,0,1.9-0.3,2.8-0.8
		c0.9-0.5,1.5-1.2,2-2.1h-6.6v-2.8h10.3c0,2.3-0.8,4.3-2.4,5.9c-1.6,1.7-3.6,2.5-6,2.5c-2.4,0-4.4-0.8-6.1-2.4
		c-1.7-1.6-2.5-3.5-2.5-5.8v-0.3c0-2.2,0.8-4,2.5-5.7C99.4,41.1,101.2,40.3,103.3,40.3"/>
	
		<rect x="115" y="40.6" style="clip-path:url(#SVGID_00000013902918834174904260000008429706870178341506_);fill:#1D71B8;" width="2.9" height="15.9"/>
	<polygon style="clip-path:url(#SVGID_00000013902918834174904260000008429706870178341506_);fill:#1D71B8;" points="121.5,40.6 
		124.8,40.6 131.4,52.3 131.4,40.6 134.3,40.6 134.3,56.5 131.1,56.5 124.4,44.9 124.4,56.5 121.5,56.5 	"/>
	<polygon style="clip-path:url(#SVGID_00000013902918834174904260000008429706870178341506_);fill:#1D71B8;" points="137.9,40.6 
		146.4,40.6 146.4,43.4 140.8,43.4 140.8,47.1 146.2,47.1 146.2,50 140.8,50 140.8,53.6 146.4,53.6 146.4,56.5 137.9,56.5 	"/>
	<polygon style="clip-path:url(#SVGID_00000013902918834174904260000008429706870178341506_);fill:#1D71B8;" points="149.5,40.6 
		158.1,40.6 158.1,43.4 152.5,43.4 152.5,47.1 157.8,47.1 157.8,50 152.5,50 152.5,53.6 158,53.6 158,56.5 149.5,56.5 	"/>
	<path style="clip-path:url(#SVGID_00000013902918834174904260000008429706870178341506_);fill:#1D71B8;" d="M165.5,40.6h0.5
		c1.7,0,3.1,0.4,4.1,1.2c1.1,0.9,1.7,2.2,1.7,3.9c0,1-0.3,2-0.9,2.8c-0.7,1.1-1.8,1.8-3.3,2.1l4.3,5.9h-3.7l-4.2-6.2v6.2h-2.9V40.6
		H165.5z M164.2,43.4v4.7h1.9c0.9,0,1.5-0.2,2-0.6c0.5-0.4,0.8-1,0.8-1.9c0-0.8-0.3-1.4-1-1.7c-0.5-0.3-1.2-0.4-2.1-0.4H164.2z"/>
	
		<rect x="174.5" y="40.6" style="clip-path:url(#SVGID_00000013902918834174904260000008429706870178341506_);fill:#1D71B8;" width="2.9" height="15.9"/>
	<polygon style="clip-path:url(#SVGID_00000013902918834174904260000008429706870178341506_);fill:#1D71B8;" points="180.7,40.6 
		184.1,40.6 190.6,52.3 190.6,40.6 193.6,40.6 193.6,56.5 190.3,56.5 183.6,44.9 183.6,56.5 180.7,56.5 	"/>
	<path style="clip-path:url(#SVGID_00000013902918834174904260000008429706870178341506_);fill:#1D71B8;" d="M204.2,40.3
		c0.8,0,1.6,0.1,2.3,0.2c1.1,0.3,2.2,0.7,3.1,1.4c1.1,0.8,2.1,2,2.7,3.4h-3.5c-0.4-0.7-1-1.2-1.7-1.6c-0.7-0.4-1.5-0.6-2.3-0.6h-0.5
		c-1.3,0-2.5,0.5-3.5,1.5c-1,1-1.6,2.3-1.6,3.7c0,1.7,0.6,3,1.7,4.1c1.1,1,2.3,1.5,3.8,1.5c1,0,1.9-0.3,2.8-0.8
		c0.9-0.5,1.5-1.2,2-2.1h-6.6v-2.8h10.3c0,2.3-0.8,4.3-2.4,5.9c-1.6,1.7-3.6,2.5-6,2.5s-4.4-0.8-6.1-2.4c-1.7-1.6-2.5-3.5-2.5-5.8
		v-0.3c0-2.2,0.8-4,2.5-5.7C200.3,41.1,202.2,40.3,204.2,40.3"/>
	<path style="clip-path:url(#SVGID_00000013902918834174904260000008429706870178341506_);" d="M166.5,73.1c0.5,0.3,1.2,0.6,2,0.6
		c0.9,0,1.5-0.5,1.5-1.2c0-0.7-0.4-1.1-1.4-1.5c-1.3-0.5-2.2-1.3-2.2-2.6c0-1.5,1.1-2.6,2.9-2.6c0.9,0,1.5,0.2,1.9,0.5l-0.4,1.3
		c-0.3-0.2-0.9-0.4-1.6-0.4c-0.9,0-1.3,0.6-1.3,1.1c0,0.7,0.5,1,1.5,1.5c1.4,0.6,2.1,1.4,2.1,2.7c0,1.4-1,2.7-3.1,2.7
		c-0.9,0-1.7-0.3-2.2-0.6L166.5,73.1z"/>
	<path style="clip-path:url(#SVGID_00000013902918834174904260000008429706870178341506_);" d="M173.1,70.6c0-0.9,0-1.5,0-2.2h1.3
		l0.1,1h0c0.4-0.7,1.1-1.1,2-1.1c1.3,0,2.5,1.3,2.5,3.3c0,2.3-1.3,3.5-2.7,3.5c-0.7,0-1.3-0.3-1.6-0.9h0v3.4h-1.5V70.6z M174.5,72.2
		c0,0.2,0,0.3,0,0.5c0.1,0.7,0.7,1.1,1.3,1.1c0.9,0,1.5-0.9,1.5-2.1c0-1.1-0.5-2.1-1.5-2.1c-0.6,0-1.2,0.5-1.3,1.2
		c0,0.1-0.1,0.3-0.1,0.4V72.2z"/>
	<path style="clip-path:url(#SVGID_00000013902918834174904260000008429706870178341506_);" d="M182.6,74l2.2-3.1
		c0.3-0.4,0.6-0.7,0.9-1.1v0h-2.8v-1.3h4.6v1l-2.1,3.1c-0.3,0.4-0.6,0.8-0.9,1.1v0h3.1v1.3h-4.9V74z"/>
	<path style="clip-path:url(#SVGID_00000013902918834174904260000008429706870178341506_);" d="M197.2,71.6c0,2.4-1.5,3.5-3,3.5
		c-1.7,0-2.9-1.3-2.9-3.3c0-2.1,1.3-3.4,3-3.4C196,68.3,197.2,69.6,197.2,71.6 M192.8,71.7c0,1.3,0.6,2.2,1.5,2.2
		c0.8,0,1.4-0.9,1.4-2.2c0-1-0.4-2.2-1.4-2.2C193.2,69.5,192.8,70.6,192.8,71.7"/>
	<path style="clip-path:url(#SVGID_00000013902918834174904260000008429706870178341506_);" d="M198.2,74c0-0.6,0.4-1.1,0.9-1.1
		c0.5,0,0.9,0.4,0.9,1.1c0,0.6-0.4,1.1-0.9,1.1C198.6,75,198.2,74.6,198.2,74"/>
	<path style="clip-path:url(#SVGID_00000013902918834174904260000008429706870178341506_);" d="M209.8,71.6c0,2.4-1.5,3.5-3,3.5
		c-1.7,0-2.9-1.3-2.9-3.3c0-2.1,1.3-3.4,3-3.4C208.7,68.3,209.8,69.6,209.8,71.6 M205.4,71.7c0,1.3,0.6,2.2,1.5,2.2
		c0.8,0,1.4-0.9,1.4-2.2c0-1-0.4-2.2-1.4-2.2C205.9,69.5,205.4,70.6,205.4,71.7"/>
	<path style="clip-path:url(#SVGID_00000013902918834174904260000008429706870178341506_);" d="M210.8,74c0-0.6,0.4-1.1,0.9-1.1
		c0.5,0,0.9,0.4,0.9,1.1c0,0.6-0.4,1.1-0.9,1.1C211.2,75,210.8,74.6,210.8,74"/>
	<polygon style="clip-path:url(#SVGID_00000013902918834174904260000008429706870178341506_);" points="23.9,10.1 3.6,10.1 
		3.6,47.5 5.2,46.2 5.2,11.7 23.9,11.7 	"/>
	<polygon style="clip-path:url(#SVGID_00000013902918834174904260000008429706870178341506_);" points="50.4,32.2 48.8,33.1 
		48.8,55.3 42.5,55.3 41.9,56.9 50.4,56.9 	"/>
	<polygon style="clip-path:url(#SVGID_00000013902918834174904260000008429706870178341506_);" points="9.7,55.3 7,56.9 28.7,56.9 
		28.7,55.3 	"/>
	<path style="clip-path:url(#SVGID_00000013902918834174904260000008429706870178341506_);fill:#F39200;" d="M38.7,24.7
		c-0.6-6.2-4-11.7-7.5-13.7c-0.1,0-0.2-0.1-0.2-0.1c0.4,1.7,1.3,3.6,1.8,5.9C35.7,18.8,37.8,21.6,38.7,24.7"/>
</g>
<g>
	<defs>
		<path id="SVGID_00000103241656585111402220000004585540497409564083_" d="M17,43.2c-6.8,5.4-15.2,9.6-15.1,9.6
			c-0.1,0,10.7-2.7,19.3-7.2c4.4-2.1,9.8-6.2,10.2-6.7c0.7-0.8,1-1.1,1.4-2c0.9-2.4,0-5.7-2.1-8C29.5,31.6,24,37.9,17,43.2"/>
	</defs>
	<clipPath id="SVGID_00000067216597050631238590000013427426329600218809_">
		<use xlink:href="#SVGID_00000103241656585111402220000004585540497409564083_"  style="overflow:visible;"/>
	</clipPath>
	
		<radialGradient id="SVGID_00000154422900858080967850000007419552894940122250_" cx="-0.4524" cy="84.9704" r="0.7091" gradientTransform="matrix(14.8362 -23.0589 -23.0589 -14.8362 1986.9244 1283.0743)" gradientUnits="userSpaceOnUse">
		<stop  offset="0" style="stop-color:#FCEA10"/>
		<stop  offset="1" style="stop-color:#F39200"/>
	</radialGradient>
	
		<polygon style="clip-path:url(#SVGID_00000067216597050631238590000013427426329600218809_);fill:url(#SVGID_00000154422900858080967850000007419552894940122250_);" points="
		-9.1,45.8 11.2,14.3 44.7,35.9 24.4,67.4 	"/>
</g>
<g>
	<defs>
		<path id="SVGID_00000022554206148558255240000002771091417391063981_" d="M22.7,24.8c0.4,3,2.2,5.4,4.9,7c1.2-1.4,2-2.7,2.4-3.5
			c0,0,0-0.1,0-0.1c-0.6-0.6-1.3-1.1-2-1.5C27,26.1,25.1,25.4,22.7,24.8z"/>
	</defs>
	<clipPath id="SVGID_00000089558545859832792590000005092596678591746745_">
		<use xlink:href="#SVGID_00000022554206148558255240000002771091417391063981_"  style="overflow:visible;"/>
	</clipPath>
	
		<radialGradient id="SVGID_00000112605925000952371580000013064895730137412002_" cx="-0.3623" cy="84.9191" r="0.7091" gradientTransform="matrix(29.2777 -23.3875 -23.3875 -29.2777 2024.0798 2510.697)" gradientUnits="userSpaceOnUse">
		<stop  offset="0" style="stop-color:#00182D"/>
		<stop  offset="0.5174" style="stop-color:#2581C4"/>
		<stop  offset="0.5678" style="stop-color:#2580C1"/>
		<stop  offset="0.6311" style="stop-color:#257AB9"/>
		<stop  offset="0.7012" style="stop-color:#2371AA"/>
		<stop  offset="0.7762" style="stop-color:#206395"/>
		<stop  offset="0.8552" style="stop-color:#195079"/>
		<stop  offset="0.9362" style="stop-color:#0B3553"/>
		<stop  offset="1" style="stop-color:#00182D"/>
	</radialGradient>
	
		<polygon style="clip-path:url(#SVGID_00000089558545859832792590000005092596678591746745_);fill:url(#SVGID_00000112605925000952371580000013064895730137412002_);" points="
		19.3,27.5 27.2,21.3 33.4,29.1 25.6,35.4 	"/>
</g>
<g>
	<defs>
		<path id="SVGID_00000013898319391445972950000009766881831476809656_" d="M47.5,18.6c-2.2,1.8-5.4,3.7-8.1,5
			c0.3,2.2,0.4,4.4,0,6.6c-0.2,0.9-0.5,1.8-1.1,2.7c0.5-0.1,0.9-0.1,1.4-0.2c4.7-0.9,10.2-6.4,12.2-11.2c2.3-4.9,1.1-9,1.2-8.9
			c0,0,0,0,0,0C53,12.6,51.5,15.5,47.5,18.6"/>
	</defs>
	<clipPath id="SVGID_00000041990922550871084960000008999311240109517759_">
		<use xlink:href="#SVGID_00000013898319391445972950000009766881831476809656_"  style="overflow:visible;"/>
	</clipPath>
	
		<radialGradient id="SVGID_00000086692028301716446170000010337554649428950182_" cx="-0.3796" cy="84.9214" r="0.7091" gradientTransform="matrix(29.0953 -23.2418 -23.2418 -29.0953 2013.427 2494.2732)" gradientUnits="userSpaceOnUse">
		<stop  offset="0" style="stop-color:#00182D"/>
		<stop  offset="0.5174" style="stop-color:#2581C4"/>
		<stop  offset="0.5678" style="stop-color:#2580C1"/>
		<stop  offset="0.6311" style="stop-color:#257AB9"/>
		<stop  offset="0.7012" style="stop-color:#2371AA"/>
		<stop  offset="0.7762" style="stop-color:#206395"/>
		<stop  offset="0.8552" style="stop-color:#195079"/>
		<stop  offset="0.9362" style="stop-color:#0B3553"/>
		<stop  offset="1" style="stop-color:#00182D"/>
	</radialGradient>
	
		<polygon style="clip-path:url(#SVGID_00000041990922550871084960000008999311240109517759_);fill:url(#SVGID_00000086692028301716446170000010337554649428950182_);" points="
		28.4,20.5 48,4.8 64.2,25 44.5,40.7 	"/>
</g>
<g>
	<defs>
		<path id="SVGID_00000039100016682054198000000002027882253718520975_" d="M31.4,67.8C31.4,67.8,31.4,67.8,31.4,67.8
			C31.4,67.8,31.4,67.8,31.4,67.8 M29.6,41.5c4.6,11.5,1.8,25.9,1.9,26.3c0,0,0,0,0,0c0,0,0,0,0,0c0.1-0.2,4.8-4.1,7.3-11.1
			c2.8-6.9,3.5-15.4,0.5-20.9c-0.3-0.5-0.9-1.4-1.3-1.8C36.5,36.2,33.6,38.7,29.6,41.5"/>
	</defs>
	<clipPath id="SVGID_00000025424842378066423350000014220044054893957509_">
		<use xlink:href="#SVGID_00000039100016682054198000000002027882253718520975_"  style="overflow:visible;"/>
	</clipPath>
	
		<radialGradient id="SVGID_00000134224403775460391440000005086231043268890797_" cx="-0.6719" cy="84.8056" r="0.7091" gradientTransform="matrix(17.8125 0 0 -17.8125 47.3225 1561.5238)" gradientUnits="userSpaceOnUse">
		<stop  offset="0" style="stop-color:#E30613"/>
		<stop  offset="0.1649" style="stop-color:#E30613"/>
		<stop  offset="0.2782" style="stop-color:#E00714"/>
		<stop  offset="0.4201" style="stop-color:#D50914"/>
		<stop  offset="0.5772" style="stop-color:#C40C14"/>
		<stop  offset="0.7453" style="stop-color:#AA0F13"/>
		<stop  offset="0.9203" style="stop-color:#8A0F0E"/>
		<stop  offset="1" style="stop-color:#7A0E0B"/>
	</radialGradient>
	
		<rect x="29.6" y="34" style="clip-path:url(#SVGID_00000025424842378066423350000014220044054893957509_);fill:url(#SVGID_00000134224403775460391440000005086231043268890797_);" width="12.6" height="33.8"/>
</g>
<g>
	<defs>
		<path id="SVGID_00000007386341154290472170000017011536466745303468_" d="M13.8,17.4c-5,2.1-6.7,6-6.8,5.9c0,0,0.7-0.2,1.9-0.4
			c1.4-0.3,3.6-0.6,6.3-0.4c4.8,0.1,11.6,1.9,13.8,3.3c4.1,2.4,6.3,7.1,5,10.9c0.1-0.1,0.2-0.2,0.3-0.2c6.7-4.9,4.6-14.8-3.9-19.5
			c-1.9-1.1-4.5-1.6-7.2-1.6C19.8,15.3,16.3,16.1,13.8,17.4"/>
	</defs>
	<clipPath id="SVGID_00000003805370854998143170000008105386108929735605_">
		<use xlink:href="#SVGID_00000007386341154290472170000017011536466745303468_"  style="overflow:visible;"/>
	</clipPath>
	
		<radialGradient id="SVGID_00000013159671933587564080000001486990850984044456_" cx="-0.9204" cy="84.9197" r="0.7091" gradientTransform="matrix(9.6018 -14.9235 -14.9235 -9.6018 1300.9365 825.6558)" gradientUnits="userSpaceOnUse">
		<stop  offset="0" style="stop-color:#2581C4"/>
		<stop  offset="0.1046" style="stop-color:#2580C1"/>
		<stop  offset="0.2356" style="stop-color:#257AB9"/>
		<stop  offset="0.3808" style="stop-color:#2371AA"/>
		<stop  offset="0.5363" style="stop-color:#206395"/>
		<stop  offset="0.6999" style="stop-color:#195079"/>
		<stop  offset="0.8677" style="stop-color:#0B3553"/>
		<stop  offset="1" style="stop-color:#00182D"/>
	</radialGradient>
	
		<polygon style="clip-path:url(#SVGID_00000003805370854998143170000008105386108929735605_);fill:url(#SVGID_00000013159671933587564080000001486990850984044456_);" points="
		-2.7,30.4 17,-0.1 50.6,21.6 31,52.1 	"/>
</g>
</svg>
