<svg clip-rule="evenodd" fill-rule="evenodd" height="512" image-rendering="optimizeQuality" shape-rendering="geometricPrecision" text-rendering="geometricPrecision" viewBox="0 0 512 512" width="512" xmlns="http://www.w3.org/2000/svg"><g id="Layer_x0020_1" fill-rule="nonzero"><path d="m118 96h276c4 0 8 2 11 4s0 1 1 1c2 3 4 6 4 10v344 1c0 1 0 1-1 2l-5-2 5 2c0 3-3 5-7 4-2 0-4-3-4-5-1-8-5-15-11-21-6-5-13-8-21-8h-220c-8 0-15 3-21 8-6 6-10 13-11 21l-6-1 6 1c0 3-3 6-6 5-3 0-5-2-6-5v-1c0-1 0-1 0-1v-344c0-4 2-8 5-11 3-2 6-4 11-4zm276 12h-276c-1 0-2 0-3 1l-4-4 4 4s-1 1-1 2v319c1-1 2-2 3-2 8-8 18-12 29-12h220c11 0 21 4 29 12 1 0 2 1 3 2v-319c0-1-1-1-1-2l4-4-4 4c-1-1-2-1-3-1z"/><path d="m146 416h220c12 0 23 5 31 13s13 19 13 31v8c0 12-5 23-13 31s-19 13-31 13h-220c-12 0-23-5-31-13s-13-19-13-31v-8c0-12 5-23 13-31s19-13 31-13zm220 12h-220c-8 0-17 4-22 10-6 5-10 13-10 22v8c0 9 4 17 10 23 5 5 14 9 22 9h220c8 0 17-4 22-9 6-6 10-14 10-23v-8c0-9-4-17-10-22-5-6-14-10-22-10z"/><path d="m141 458c-4 0-6 3-6 6s2 6 6 6h47c3 0 6-3 6-6s-3-6-6-6z"/><path d="m232 458c-3 0-6 3-6 6s3 6 6 6h48c3 0 6-3 6-6s-3-6-6-6z"/><path d="m324 458c-3 0-6 3-6 6s3 6 6 6h47c4 0 6-3 6-6s-2-6-6-6z"/><path d="m156 49h200c3 0 6 3 6 6v47c0 3-3 6-6 6h-200c-3 0-6-3-6-6v-47c0-3 3-6 6-6zm194 12h-188v35h188z"/><path d="m209 6c0-3-3-6-6-6-4 0-6 3-6 6v49c0 3 2 6 6 6 3 0 6-3 6-6z"/><path d="m315 6c0-3-2-6-6-6-3 0-6 3-6 6v49c0 3 3 6 6 6 4 0 6-3 6-6z"/><path d="m278 232c2-2 1-6-2-8-3-1-6 0-8 2l-29 50c-1 3-1 7 2 8 1 1 2 1 3 1h31l-28 35c-2 2-2 6 1 8 2 2 6 2 8-1l36-44c1-1 2-2 2-4 0-3-3-6-6-6h-33z"/><path d="m266 185c25 0 48 10 64 27 17 16 27 39 27 64 0 26-10 48-27 65-16 16-39 27-64 27s-48-11-65-27c-16-17-26-39-26-65 0-25 10-48 26-64 17-17 40-27 65-27zm56 35c-14-14-34-23-56-23s-42 9-56 23c-14 15-23 35-23 56 0 22 9 42 23 56 14 15 34 24 56 24s42-9 56-24c14-14 23-34 23-56 0-21-9-41-23-56z"/></g></svg>