<svg id="Outline" viewBox="0 0 64 64" xmlns="http://www.w3.org/2000/svg"><path d="m61 56.18v-37.36c1.16-.41 2-1.51 2-2.82 0-1.65-1.35-3-3-3h-9v-2c1.65 0 3-1.35 3-3 0-.77-.3-1.47-.78-2 .48-.53.78-1.23.78-2 0-1.65-1.35-3-3-3h-8c-1.65 0-3 1.35-3 3 0 .77.3 1.47.78 2-.48.53-.78 1.23-.78 2 0 1.65 1.35 3 3 3v2h-22v-2c1.65 0 3-1.35 3-3 0-.77-.3-1.47-.78-2 .48-.53.78-1.23.78-2 0-1.65-1.35-3-3-3h-8c-1.65 0-3 1.35-3 3 0 .77.3 1.47.78 2-.48.53-.78 1.23-.78 2 0 1.65 1.35 3 3 3v2h-9c-1.65 0-3 1.35-3 3 0 1.3.84 2.4 2 2.82v37.37c-1.16.41-2 1.51-2 2.82v1c0 1.65 1.35 3 3 3h56c1.65 0 3-1.35 3-3v-1c0-1.3-.84-2.4-2-2.82zm-2-19.18h-5v-.5c0-1.93-1.57-3.5-3.5-3.5-.54 0-1.04.13-1.5.35v-4.35c0-2.76-2.24-5-5-5h-24c-2.76 0-5 2.24-5 5v4.35c-.46-.22-.96-.35-1.5-.35-1.93 0-3.5 1.57-3.5 3.5v.5h-5v-18h54zm-47-.5c0-.83.67-1.5 1.5-1.5s1.5.67 1.5 1.5v3c0 .83-.67 1.5-1.5 1.5s-1.5-.67-1.5-1.5zm5 3v-10.5c0-1.65 1.35-3 3-3h24c1.65 0 3 1.35 3 3v18c0 1.65-1.35 3-3 3h-24c-1.65 0-3-1.35-3-3zm32-3c0-.83.67-1.5 1.5-1.5s1.5.67 1.5 1.5v3c0 .83-.67 1.5-1.5 1.5s-1.5-.67-1.5-1.5zm-44 2.5h5v.5c0 1.93 1.57 3.5 3.5 3.5.54 0 1.04-.13 1.5-.35v4.35c0 2.76 2.24 5 5 5h24c2.76 0 5-2.24 5-5v-4.35c.46.22.96.35 1.5.35 1.93 0 3.5-1.57 3.5-3.5v-.5h5v17h-54zm38-36h8c.55 0 1 .45 1 1s-.45 1-1 1h-8c-.55 0-1-.45-1-1s.45-1 1-1zm-1 5c0-.55.45-1 1-1h8c.55 0 1 .45 1 1s-.45 1-1 1h-8c-.55 0-1-.45-1-1zm3 3h4v2h-4zm-32-8h8c.55 0 1 .45 1 1s-.45 1-1 1h-8c-.55 0-1-.45-1-1s.45-1 1-1zm-1 5c0-.55.45-1 1-1h8c.55 0 1 .45 1 1s-.45 1-1 1h-8c-.55 0-1-.45-1-1zm3 3h4v2h-4zm-11 4h56c.55 0 1 .45 1 1s-.45 1-1 1h-56c-.55 0-1-.45-1-1s.45-1 1-1zm57 45c0 .55-.45 1-1 1h-56c-.55 0-1-.45-1-1v-1c0-.55.45-1 1-1h56c.55 0 1 .45 1 1zm-31.02-14.01c.78 0 1.38-.09 1.69-.15.49.08.98.12 1.46.12 2.99 0 5.84-1.45 7.72-4 2.34-3.18 2.8-7.64 1.16-11.37-.16-.36-.51-.59-.91-.6-1.12 0-5.17.24-8.14 3.82-1.12 1.34-1.78 2.81-2.18 4.22-.47-.74-1-1.42-1.64-2.01-2.7-2.5-5.82-2.63-7.04-2.57-.46.02-.84.35-.93.8-.11.54-.94 5.33 2.35 8.93 2.13 2.33 4.72 2.8 6.46 2.8zm4.52-10.9c2-2.41 4.58-2.96 5.93-3.07 1.05 2.94.61 6.31-1.19 8.75-1.64 2.22-4.19 3.39-6.78 3.16-.09-.5-.18-1.25-.18-2.15 0-.02.01-.04.01-.06 0-.03 0-.05 0-.08.01-1.9.44-4.42 2.22-6.55zm-11.47.37c1.2.08 3.09.48 4.76 2.03 1.2 1.11 2.04 2.58 2.5 4.37 0 .84.08 1.57.16 2.12-1.28.09-3.59-.1-5.45-2.14-2.01-2.21-2.09-5-1.97-6.38z"/></svg>