<svg id="icon" enable-background="new 0 0 512 512" height="512" viewBox="0 0 512 512" width="512" xmlns="http://www.w3.org/2000/svg"><g fill="#1d1d1b"><path d="m473.359 289.851v-192.835c0-14.882-12.105-26.992-26.988-26.992h-23.281v-32.898h-63.49v32.898h-23.28c-14.883 0-26.988 12.11-26.988 26.992v50.707h-106.666v-51.552c0-14.882-12.108-26.992-26.992-26.992h-23.275v-32.053h-63.495v32.053h-23.278c-14.883 0-26.992 12.11-26.992 26.992v192.829h-26.343v185.023h216.719v-185.023h-26.344v-50.872h106.667v51.722h-26.344v185.023h216.721v-185.022zm-105.328-244.293h46.627v24.466h-46.627zm-50.267 51.458c0-10.235 8.326-18.56 18.557-18.56h110.051c10.232 0 18.559 8.325 18.559 18.56v192.834h-147.167v-51.722h34.18c11.117 0 20.16-9.043 20.16-20.157v-50.086c0-11.119-9.043-20.163-20.16-20.163h-34.18zm-220.428-51.458h46.63v23.621h-46.63zm-50.27 50.613c0-10.236 8.326-18.561 18.56-18.561h110.048c10.234 0 18.56 8.325 18.56 18.561v51.551h-33.439c-11.116 0-20.16 9.044-20.16 20.163v50.086c0 11.114 9.044 20.157 20.16 20.157h33.439v50.872h-147.168zm173.512 201.261v168.16h-199.856v-168.16zm-59.784-67.735c-6.467 0-11.728-5.259-11.728-11.726v-50.086c0-6.469 5.261-11.73 11.728-11.73h191.149c6.467 0 11.729 5.261 11.729 11.73v50.086c0 6.466-5.262 11.726-11.729 11.726zm330.485 236.745h-199.859v-168.16h199.859z"/><path d="m314.168 170.345c-12.453 0-22.584 10.131-22.584 22.583 0 12.453 10.131 22.584 22.584 22.584 12.455 0 22.59-10.131 22.59-22.584 0-12.452-10.135-22.583-22.59-22.583zm0 36.736c-7.805 0-14.152-6.349-14.152-14.152s6.348-14.151 14.152-14.151c7.807 0 14.158 6.348 14.158 14.151s-6.351 14.152-14.158 14.152z"/><path d="m198.45 170.345c-12.453 0-22.583 10.131-22.583 22.583 0 12.453 10.13 22.584 22.583 22.584 12.454 0 22.586-10.131 22.586-22.584 0-12.452-10.132-22.583-22.586-22.583zm0 36.736c-7.803 0-14.152-6.349-14.152-14.152s6.349-14.151 14.152-14.151c7.804 0 14.155 6.348 14.155 14.151-.001 7.803-6.351 14.152-14.155 14.152z"/></g></svg>