<svg xmlns="http://www.w3.org/2000/svg" xmlns:xlink="http://www.w3.org/1999/xlink" width="114.017" height="113.188" viewBox="0 0 114.017 113.188">
  <defs>
    <clipPath id="clip-path">
      <path id="Path_674" data-name="Path 674" d="M0,30.785H114.017V-82.4H0Z" transform="translate(0 82.403)" fill="none"/>
    </clipPath>
  </defs>
  <g id="Group_557" data-name="Group 557" transform="translate(0)">
    <g id="Group_556" data-name="Group 556" transform="translate(0 0)" clip-path="url(#clip-path)">
      <g id="Group_555" data-name="Group 555" transform="translate(1.265 1.265)">
        <path id="Path_673" data-name="Path 673" d="M8.9,30.085H34.01V.7h7.625L8.9-17.9-23.83.7h7.625V30.085Zm-15.158,0V11.3H24.06V30.085M-15.311-4.139V-52.862H-1.465v40.856M55.717-58.772H75.663l11.159,88.9H44.558Zm-11.993,0H87.657M52.578-70.861H78.8m-19.528-.93v-8.74H72.107v8.74M-1.465-49.18A7.817,7.817,0,0,0,1.7-55.463c0-.223-.016-.446-.034-.663a12.032,12.032,0,0,0,3.788.619A12.065,12.065,0,0,0,17.52-67.575,12.069,12.069,0,0,0,5.452-79.644,12.067,12.067,0,0,0-6.609-67.575,11.881,11.881,0,0,0-5.8-63.264c-.107,0-.207-.011-.313-.011a7.806,7.806,0,0,0-7.812,7.812,7.746,7.746,0,0,0,.446,2.6M51.138-9.524h29.1M54.532-36.92H76.848m-20.225-15.1H74.756m-30.2,82.146L65.691-9.348,86.822,30.125M49.535-9.524,65.691-36.179,81.867-9.348M53.023-36.92l12.667-15.1,12.715,15.1M46.385-58.772l8.784-12.089L65.691-58.772,75.96-70.861,85.3-58.772" transform="translate(23.83 80.531)" fill="none" stroke="#00442d" stroke-linecap="round" stroke-linejoin="round" stroke-width="1.842"/>
      </g>
    </g>
  </g>
</svg>
