<svg id="Group_563" data-name="Group 563" xmlns="http://www.w3.org/2000/svg" xmlns:xlink="http://www.w3.org/1999/xlink" width="118.101" height="106.232" viewBox="0 0 118.101 106.232">
  <defs>
    <clipPath id="clip-path">
      <path id="Path_678" data-name="Path 678" d="M0,41.292H118.1V-64.94H0Z" transform="translate(0 64.94)" fill="none"/>
    </clipPath>
  </defs>
  <g id="Group_562" data-name="Group 562" transform="translate(0 0)" clip-path="url(#clip-path)">
    <g id="Group_561" data-name="Group 561" transform="translate(1.317 1.318)">
      <path id="Path_677" data-name="Path 677" d="M31.779,35.6V27.369M25.2,6.966c7.711,6.362,6.511,20.553,6.511,20.553S18.007,31.4,10.3,25.036,3.785,4.483,3.785,4.483,17.49.6,25.2,6.966ZM4.991,5.476,30.836,26.8M38.357,6.966c-7.711,6.362-6.509,20.553-6.509,20.553s13.7,3.879,21.415-2.483S59.774,4.483,59.774,4.483,46.069.6,38.357,6.966Zm20.211-1.49L32.723,26.8M65.4,13.982A33.622,33.622,0,1,1,31.779-19.639,33.622,33.622,0,0,1,65.4,13.982ZM57.592-7.56h7.9V-55.993H-35.405V-7.56H5.971M-35.405-17.649H-49.979V-45.9h14.574m31.24,32.64h-8.948V-50.287h8.948Zm15.272,0H2.159V-50.287h8.948Zm6.327-3.169V-50.287h8.945V-19.2m6.327-.425V-50.287h8.946v32.123m9.83,4.9h5.442V-50.287H47.979v34.8" transform="translate(49.979 55.993)" fill="none" stroke="#00442d" stroke-linecap="round" stroke-linejoin="round" stroke-width="1.61"/>
    </g>
  </g>
</svg>
