<svg xmlns="http://www.w3.org/2000/svg" xmlns:xlink="http://www.w3.org/1999/xlink" width="118.141" height="118.141" viewBox="0 0 118.141 118.141">
  <defs>
    <clipPath id="clip-path">
      <path id="Path_676" data-name="Path 676" d="M0-15.976H118.141V-134.117H0Z" transform="translate(0 134.117)" fill="none"/>
    </clipPath>
  </defs>
  <g id="Group_560" data-name="Group 560" transform="translate(0 134.117)">
    <g id="Group_559" data-name="Group 559" transform="translate(0 -134.117)" clip-path="url(#clip-path)">
      <g id="Group_558" data-name="Group 558" transform="translate(1.311 1.31)">
        <path id="Path_675" data-name="Path 675" d="M-.858-11.374A57.51,57.51,0,0,1-7.2-37.72,57.76,57.76,0,0,1,50.556-95.48a57.76,57.76,0,0,1,57.76,57.76,57.76,57.76,0,0,1-57.76,57.759V-16.569m7.792-.461H42.765a10.289,10.289,0,0,1-10.29-10.29V-42.98H68.637v15.661A10.289,10.289,0,0,1,58.348-17.03ZM39.821-42.98v-8.061M61.242-42.98v-8.061M50.556-38.373,46.808-31h7.37l-3.622,8.752" transform="translate(7.203 95.48)" fill="none" stroke="#00442d" stroke-linecap="round" stroke-linejoin="round" stroke-width="2.976"/>
      </g>
    </g>
  </g>
</svg>
