<svg xmlns="http://www.w3.org/2000/svg" xmlns:xlink="http://www.w3.org/1999/xlink" width="115.853" height="118.141" viewBox="0 0 115.853 118.141">
  <defs>
    <clipPath id="clip-path">
      <path id="Path_672" data-name="Path 672" d="M0,37.529H115.853V-80.612H0Z" transform="translate(0 80.612)" fill="none"/>
    </clipPath>
  </defs>
  <g id="Group_554" data-name="Group 554" transform="translate(0 80.612)">
    <g id="Group_553" data-name="Group 553" transform="translate(0 -80.612)" clip-path="url(#clip-path)">
      <g id="Group_552" data-name="Group 552" transform="translate(1.319 1.319)">
        <path id="Path_671" data-name="Path 671" d="M25.727,25h23.03a7.77,7.77,0,1,1,0,15.539h-62.4m-9.661,0H-44.637a10.6,10.6,0,0,0-7.514,3.11,10.59,10.59,0,0,0-3.111,7.514A10.624,10.624,0,0,0-44.637,61.793H57.955M-22.608,7.459l-.006.142-.057,2.744L-23.75,61.791H-13.2L-14.3,9.049l-.028-1.414-.006-.176m1.14-3.274a5.275,5.275,0,0,1-5.276,5.276A5.276,5.276,0,0,1-23.75,4.185a5.276,5.276,0,0,1,5.276-5.276A5.275,5.275,0,0,1-13.2,4.185ZM-16.24-36.691v35.6h-3.536S-30.739-20.07-16.24-36.691ZM14.586,28.434-14.977,8.6l1.97-2.937S8.86,7.134,14.586,28.434ZM-53.1,26.105-23.817,5.862l2.011,2.909S-31.185,28.581-53.1,26.105ZM26.244-18.4l-.006.114-.045,2.194L25.331,25.05H33.77l-.885-42.18-.022-1.13-.006-.142m.913-2.617A4.219,4.219,0,0,1,29.551-16.8a4.219,4.219,0,0,1-4.219-4.219,4.219,4.219,0,0,1,4.219-4.219A4.219,4.219,0,0,1,33.77-21.019ZM31.336-53.71v28.471H28.509S19.74-40.417,31.336-53.71ZM55.989-1.627,32.347-17.487l1.575-2.348S51.411-18.661,55.989-1.627ZM1.858-3.49,25.277-19.678l1.608,2.326S19.386-1.51,1.858-3.49Zm-52.78-25.959h20.551m11.28-19.007h4.114m5.774,0h27.2M-4.258-25.9H-.2m5.518,0h11.9" transform="translate(55.262 53.71)" fill="none" stroke="#00442d" stroke-linecap="round" stroke-linejoin="round" stroke-width="1.8"/>
      </g>
    </g>
  </g>
</svg>
